<svg width="297" height="99" viewBox="0 0 297 99" fill="none" xmlns="http://www.w3.org/2000/svg">
<g clip-path="url(#clip0_351_1520)">
<g clip-path="url(#clip1_351_1520)">
<path d="M0.458862 49.27C0.458862 50.0765 0.478456 50.8819 0.517644 51.6873C0.557862 52.4927 0.616644 53.2971 0.69605 54.0994C0.774425 54.9017 0.873425 55.7019 0.992018 56.4991C1.11061 57.2973 1.24777 58.0913 1.40555 58.8823C1.5623 59.6733 1.73967 60.4591 1.93561 61.2418C2.13155 62.0235 2.34605 62.8011 2.58014 63.5724C2.81424 64.3438 3.06689 65.109 3.33914 65.868C3.61036 66.628 3.90014 67.3798 4.20952 68.1244C4.51786 68.87 4.84477 69.6063 5.18921 70.3354C5.53364 71.0645 5.89664 71.7843 6.27614 72.4958C6.65667 73.2064 7.05371 73.9076 7.46827 74.5996C7.88283 75.2916 8.31389 75.9722 8.76249 76.6425C9.21005 77.3128 9.67411 77.9728 10.1547 78.6204C10.6352 79.2681 11.1313 79.9033 11.6428 80.5262C12.1543 81.1501 12.6802 81.7606 13.2216 82.3577C13.763 82.9548 14.3189 83.5385 14.8891 84.1088C15.4594 84.679 16.0431 85.2349 16.6412 85.7763C17.2383 86.3177 17.8488 86.8447 18.4717 87.3562C19.0956 87.8677 19.7309 88.3637 20.3785 88.8443C21.0261 89.3238 21.6851 89.7889 22.3554 90.2364C23.0257 90.684 23.7074 91.1161 24.3983 91.5296C25.0903 91.9442 25.7915 92.3423 26.5031 92.7218C27.2136 93.1023 27.9345 93.4642 28.6625 93.8097C29.3916 94.1542 30.129 94.4811 30.8735 94.7894C31.6191 95.0977 32.3709 95.3886 33.1299 95.6598C33.8889 95.931 34.6551 96.1847 35.4265 96.4188C36.1979 96.6518 36.9744 96.8674 37.7571 97.0633C38.5388 97.2592 39.3256 97.4356 40.1166 97.5934C40.9076 97.7501 41.7016 97.8883 42.4988 98.0069C43.297 98.1245 44.0972 98.2235 44.8996 98.3029C45.7019 98.3813 46.5052 98.4411 47.3106 98.4802C48.116 98.5205 48.9225 98.5401 49.7289 98.5401C50.5353 98.5401 51.3407 98.5205 52.1461 98.4802C52.9515 98.4411 53.7549 98.3813 54.5582 98.3029C55.3606 98.2235 56.1608 98.1245 56.958 98.0069C57.7551 97.8883 58.5502 97.7501 59.3401 97.5934C60.1311 97.4356 60.918 97.2592 61.7007 97.0633C62.4824 96.8674 63.2589 96.6518 64.0313 96.4188C64.8027 96.1847 65.5679 95.931 66.3269 95.6598C67.0859 95.3886 67.8387 95.0977 68.5832 94.7894C69.3278 94.4811 70.0651 94.1542 70.7942 93.8097C71.5233 93.4642 72.2431 93.1023 72.9547 92.7218C73.6652 92.3423 74.3665 91.9442 75.0585 91.5296C75.7504 91.1161 76.4311 90.684 77.1014 90.2364C77.7717 89.7889 78.4306 89.3238 79.0783 88.8443C79.7259 88.3637 80.3622 87.8677 80.9851 87.3562C81.6079 86.8447 82.2184 86.3177 82.8166 85.7763C83.4137 85.2349 83.9973 84.679 84.5676 84.1088C85.1379 83.5385 85.6937 82.9548 86.2351 82.3577C86.7766 81.7606 87.3035 81.1501 87.815 80.5262C88.3265 79.9033 88.8225 79.2681 89.3021 78.6204C89.7826 77.9728 90.2467 77.3128 90.6953 76.6425C91.1429 75.9722 91.5739 75.2916 91.9885 74.5996C92.4031 73.9076 92.8011 73.2064 93.1806 72.4958C93.5611 71.7843 93.9231 71.0645 94.2675 70.3354C94.613 69.6063 94.9399 68.87 95.2483 68.1244C95.5566 67.3798 95.8464 66.628 96.1186 65.868C96.3899 65.109 96.6425 64.3438 96.8766 63.5724C97.1107 62.8011 97.3262 62.0235 97.5222 61.2418C97.7181 60.4591 97.8945 59.6733 98.0522 58.8823C98.209 58.0913 98.3472 57.2973 98.4647 56.4991C98.5833 55.7019 98.6823 54.9017 98.7617 54.0994C98.8401 53.2971 98.8999 52.4927 98.9391 51.6873C98.9783 50.8819 98.9989 50.0765 98.9989 49.27C98.9989 48.4636 98.9783 47.6582 98.9391 46.8528C98.8999 46.0474 98.8401 45.243 98.7617 44.4407C98.6823 43.6384 98.5833 42.8381 98.4647 42.041C98.3472 41.2428 98.209 40.4487 98.0522 39.6577C97.8945 38.8668 97.7181 38.081 97.5222 37.2982C97.3262 36.5166 97.1107 35.739 96.8766 34.9676C96.6425 34.1963 96.3899 33.4311 96.1186 32.671C95.8464 31.912 95.5566 31.1602 95.2483 30.4147C94.9399 29.6701 94.613 28.9328 94.2675 28.2047C93.9231 27.4756 93.5611 26.7558 93.1806 26.0442C92.8011 25.3327 92.4031 24.6314 91.9885 23.9405C91.5739 23.2485 91.1429 22.5679 90.6953 21.8965C90.2467 21.2262 89.7826 20.5673 89.3021 19.9196C88.8225 19.272 88.3265 18.6368 87.815 18.0139C87.3035 17.39 86.7766 16.7795 86.2351 16.1824C85.6937 15.5853 85.1379 15.0006 84.5676 14.4313C83.9973 13.861 83.4137 13.3052 82.8166 12.7638C82.2184 12.2213 81.6079 11.6954 80.9851 11.1839C80.3622 10.6724 79.7259 10.1764 79.0783 9.69581C78.4306 9.21525 77.7717 8.75119 77.1014 8.30363C76.4311 7.85503 75.7504 7.42397 75.0585 7.00941C74.3665 6.59484 73.6652 6.19781 72.9547 5.81728C72.2431 5.43778 71.5233 5.07478 70.7942 4.73034C70.0651 4.38591 69.3278 4.059 68.5832 3.75066C67.8387 3.44231 67.0859 3.1515 66.3269 2.88028C65.5679 2.60803 64.8027 2.35538 64.0313 2.12128C63.2589 1.88719 62.4824 1.67269 61.7007 1.47675C60.918 1.28081 60.1311 1.10447 59.3401 0.946688C58.5502 0.788906 57.7551 0.65175 56.958 0.533156C56.1608 0.414562 55.3606 0.316594 54.5582 0.237188C53.7549 0.157781 52.9515 0.099 52.1461 0.0598124C51.3407 0.0195938 50.5353 0 49.7289 0C48.9225 0 48.116 0.0195938 47.3106 0.0598124C46.5052 0.099 45.7019 0.157781 44.8996 0.237188C44.0972 0.316594 43.297 0.414562 42.4988 0.533156C41.7016 0.65175 40.9076 0.788906 40.1166 0.946688C39.3256 1.10447 38.5388 1.28081 37.7571 1.47675C36.9744 1.67269 36.1979 1.88719 35.4265 2.12128C34.6551 2.35538 33.8889 2.60803 33.1299 2.88028C32.3709 3.1515 31.6191 3.44231 30.8735 3.75066C30.129 4.059 29.3916 4.38591 28.6625 4.73034C27.9345 5.07478 27.2136 5.43778 26.5031 5.81728C25.7915 6.19781 25.0903 6.59484 24.3983 7.00941C23.7074 7.42397 23.0257 7.85503 22.3554 8.30363C21.6851 8.75119 21.0261 9.21525 20.3785 9.69581C19.7309 10.1764 19.0956 10.6724 18.4717 11.1839C17.8488 11.6954 17.2383 12.2213 16.6412 12.7638C16.0431 13.3052 15.4594 13.861 14.8891 14.4313C14.3189 15.0006 13.763 15.5853 13.2216 16.1824C12.6802 16.7795 12.1543 17.39 11.6428 18.0139C11.1313 18.6368 10.6352 19.272 10.1547 19.9196C9.67411 20.5673 9.21005 21.2262 8.76249 21.8965C8.31389 22.5679 7.88283 23.2485 7.46827 23.9405C7.05371 24.6314 6.65667 25.3327 6.27614 26.0442C5.89664 26.7558 5.53364 27.4756 5.18921 28.2047C4.84477 28.9328 4.51786 29.6701 4.20952 30.4147C3.90014 31.1602 3.61036 31.912 3.33914 32.671C3.06689 33.4311 2.81424 34.1963 2.58014 34.9676C2.34605 35.739 2.13155 36.5166 1.93561 37.2982C1.73967 38.081 1.5623 38.8668 1.40555 39.6577C1.24777 40.4487 1.11061 41.2428 0.992018 42.041C0.873425 42.8381 0.774425 43.6384 0.69605 44.4407C0.616644 45.243 0.557862 46.0474 0.517644 46.8528C0.478456 47.6582 0.458862 48.4636 0.458862 49.27Z" fill="#113A5B"/>
<path d="M63.8499 22.9669C64.6264 23.5093 64.9368 24.5189 64.7811 25.3717C64.4707 26.8464 64.7811 28.5531 64.7811 30.1052C64.7038 33.3639 63.3848 36.5453 64.0056 39.8041C64.7038 43.6053 68.0398 44.3044 69.8249 47.6405C70.29 48.4934 69.6692 49.503 68.738 49.6577C68.0398 49.735 67.419 50.0454 67.2643 50.7436C67.1086 51.2097 67.419 53.3042 67.419 53.7703C67.419 55.5544 62.2978 56.6413 60.7468 57.4941C61.9874 57.7272 65.3246 58.7358 66.2558 59.9C66.4878 60.2104 66.3331 60.6755 65.9454 60.7529C64.6264 61.219 63.7725 62.771 63.5395 64.2447C63.3074 65.9514 63.6168 67.6592 63.2291 69.2885C62.3762 72.8577 57.3324 71.6161 54.0736 69.831L54.384 79.2195L31.2624 75.3399V73.2454C31.2624 73.2454 31.8832 65.4863 29.1669 60.4425C27.6932 57.6499 26.6063 55.0119 25.1326 52.2183C23.1928 48.3387 22.339 44.1487 22.1069 39.8814C21.0973 20.2505 43.9096 7.759 63.8499 22.9669Z" fill="#FFCC00"/>
<path d="M86.5838 56.6414H70.7551V59.0462H86.5838V56.6414Z" fill="#FFCC00"/>
<path d="M71.7647 53.6931L81.3852 49.5032L80.3767 47.3303L70.8335 51.5203L71.7647 53.6931Z" fill="#FFCC00"/>
<path d="M71.7647 61.9172L81.3852 66.1072L80.3767 68.3574L70.8335 64.1674L71.7647 61.9172Z" fill="#FFCC00"/>
<path d="M15.3435 62.6818L9.93978 64.4926C9.12509 64.7587 8.43003 64.7443 7.85253 64.4473C7.27503 64.1523 6.84809 63.5944 6.57378 62.7725C6.29328 61.9362 6.29741 61.2236 6.58616 60.6358C6.87491 60.05 7.43178 59.619 8.25678 59.3446L13.6234 57.5461L14.1514 59.1301L8.78066 60.9286C8.33722 61.0771 8.04434 61.2545 7.90203 61.4608C7.76178 61.667 7.75456 61.9568 7.88141 62.3311C8.00722 62.7075 8.18769 62.9344 8.42178 63.0118C8.65794 63.0881 8.98897 63.0571 9.41591 62.9169L14.8155 61.106L15.3435 62.6818Z" fill="#FFCC00"/>
<path d="M10.9541 72.0854L10.1745 70.6169L13.8003 65.9432L9.03597 68.4719L8.25635 67.0034L15.5246 63.1465L16.3042 64.615L12.6742 69.301L17.4468 66.7682L18.2223 68.2285L10.9541 72.0854Z" fill="#FFCC00"/>
<path d="M12.9774 74.9555L12.0245 73.5942L18.7648 68.8752L19.7177 70.2365L12.9774 74.9555Z" fill="#FFCC00"/>
<path d="M17.872 80.7415L16.7583 79.5082L19.1384 74.0879L15.133 77.7014L14.0193 76.468L20.1325 70.957L21.2463 72.1904L18.8662 77.6189L22.8798 74.0013L23.9853 75.2305L17.872 80.7415Z" fill="#FFCC00"/>
<path d="M27.7196 80.0278L26.1356 78.7532L21.8538 84.0909L20.5544 83.0473L24.8362 77.7095L23.2769 76.4597L24.1473 75.3789L28.5899 78.947L27.7196 80.0278Z" fill="#FFCC00"/>
<path d="M30.1463 85.2568L27.9146 83.941L26.8091 85.8178L29.4491 87.373L28.7479 88.561L24.6765 86.1602L28.8551 79.0693L32.9183 81.466L32.2129 82.6622L29.5811 81.1112L28.5953 82.786L30.8269 84.1018L30.1463 85.2568Z" fill="#FFCC00"/>
<path d="M33.5122 87.3739L32.7449 87.0604L31.6105 89.8448L30.076 89.2178L33.1822 81.5989L35.6324 82.6013C36.4048 82.9148 36.9205 83.3582 37.1793 83.9295C37.4371 84.5018 37.4165 85.1546 37.1174 85.8889C36.7049 86.9016 36.047 87.4595 35.1457 87.5636L35.2076 91.2266L35.1787 91.3009L33.5246 90.6244L33.5122 87.3739ZM33.2688 85.7775L34.1433 86.1323C34.4506 86.2591 34.7229 86.2519 34.9601 86.1116C35.1962 85.9693 35.3829 85.727 35.5211 85.3856C35.8346 84.6215 35.6943 84.1182 35.1003 83.8759L34.1969 83.5088L33.2688 85.7775Z" fill="#FFCC00"/>
<path d="M39.6829 89.3616L38.8785 89.1678L38.1855 92.0924L36.5726 91.7088L38.4743 83.7021L41.0483 84.3168C41.8588 84.5096 42.4353 84.8685 42.7766 85.3934C43.1169 85.9193 43.1974 86.568 43.0159 87.3404C42.7622 88.4026 42.1991 89.0543 41.3246 89.2956L41.9475 92.9091L41.931 92.9834L40.1944 92.5709L39.6829 89.3616ZM39.2003 87.8189L40.1201 88.0375C40.4419 88.1149 40.7079 88.0654 40.9204 87.889C41.1318 87.7137 41.2803 87.4466 41.3659 87.0888C41.5556 86.2865 41.337 85.81 40.71 85.6615L39.7654 85.4346L39.2003 87.8189Z" fill="#FFCC00"/>
<path d="M49.3421 85.39L48.9049 91.0701C48.8306 91.9199 48.5439 92.5541 48.0469 92.9718C47.5519 93.3894 46.8723 93.5658 46.0091 93.4998C45.1284 93.4307 44.4746 93.1502 44.0456 92.6583C43.6187 92.1633 43.4392 91.4826 43.5052 90.6164L43.9384 84.9734L45.6007 85.1013L45.1676 90.7484C45.1315 91.2135 45.181 91.5517 45.3161 91.7631C45.4533 91.9725 45.7183 92.0931 46.1122 92.1261C46.5082 92.1571 46.7867 92.0787 46.9496 91.891C47.1115 91.7044 47.2105 91.3867 47.2466 90.9381L47.6839 85.2621L49.3421 85.39Z" fill="#FFCC00"/>
<path d="M51.9583 90.5597L52.1934 93.4472L50.5352 93.5833L49.8628 85.3828L52.6595 85.1518C53.4701 85.0858 54.1373 85.2838 54.6602 85.7458C55.1851 86.2078 55.481 86.842 55.547 87.6474C55.613 88.4507 55.4254 89.1056 54.986 89.6109C54.5488 90.1142 53.9074 90.4008 53.0638 90.4689L51.9583 90.5597ZM51.8428 89.1819L52.9813 89.087C53.2969 89.0623 53.532 88.9406 53.6867 88.7199C53.8434 88.5002 53.9053 88.1919 53.8723 87.7959C53.8393 87.3896 53.7238 87.072 53.5258 86.843C53.3299 86.6151 53.0844 86.512 52.7874 86.5337L51.6324 86.6285L51.8428 89.1819Z" fill="#FFCC00"/>
<path d="M61.2105 84.9422L59.2305 85.4165L60.8351 92.0702L59.2181 92.462L57.6135 85.8084L55.6665 86.2787L55.3406 84.9339L60.8846 83.5974L61.2105 84.9422Z" fill="#FFCC00"/>
<path d="M66.8287 86.2205L64.4238 87.1817L65.2323 89.207L68.0785 88.0685L68.59 89.3473L64.201 91.1045L61.1444 83.465L65.521 81.7119L66.0367 82.9989L63.2028 84.1333L63.9247 85.9359L66.3295 84.9748L66.8287 86.2205Z" fill="#FFCC00"/>
<path d="M69.9186 88.7002L65.7771 81.5887L67.6622 80.4956C68.4903 80.0119 69.304 79.8913 70.1042 80.1326C70.9065 80.3718 71.5789 80.9473 72.1213 81.8568L72.7937 83.0118C73.3382 83.9472 73.5177 84.8248 73.3341 85.6436C73.1526 86.4634 72.6287 87.1245 71.7625 87.6277L69.9186 88.7002ZM67.9138 81.9517L70.6652 86.6748L71.0942 86.4232C71.5727 86.1458 71.8347 85.824 71.8821 85.458C71.9316 85.0898 71.781 84.5948 71.4325 83.973L70.7106 82.7355C70.3249 82.0734 69.9619 81.665 69.6216 81.5103C69.2833 81.3567 68.8894 81.402 68.4377 81.6465L67.9138 81.9517Z" fill="#FFCC00"/>
</g>
<path d="M120.75 40.95V51.45C120.75 52.5 121.008 53.3083 121.525 53.875C122.042 54.4417 122.8 54.725 123.8 54.725C124.8 54.725 125.567 54.4417 126.1 53.875C126.633 53.3083 126.9 52.5 126.9 51.45V40.95H131.175V51.425C131.175 52.9917 130.842 54.3167 130.175 55.4C129.508 56.4833 128.608 57.3 127.475 57.85C126.358 58.4 125.108 58.675 123.725 58.675C122.342 58.675 121.1 58.4083 120 57.875C118.917 57.325 118.058 56.5083 117.425 55.425C116.792 54.325 116.475 52.9917 116.475 51.425V40.95H120.75ZM142.677 44.4C144.31 44.4 145.61 44.9333 146.577 46C147.56 47.05 148.052 48.5 148.052 50.35V58.5H143.802V50.925C143.802 49.9917 143.56 49.2667 143.077 48.75C142.594 48.2333 141.944 47.975 141.127 47.975C140.31 47.975 139.66 48.2333 139.177 48.75C138.694 49.2667 138.452 49.9917 138.452 50.925V58.5H134.177V44.55H138.452V46.4C138.885 45.7833 139.469 45.3 140.202 44.95C140.935 44.5833 141.76 44.4 142.677 44.4ZM153.173 43.1C152.423 43.1 151.806 42.8833 151.323 42.45C150.856 42 150.623 41.45 150.623 40.8C150.623 40.1333 150.856 39.5833 151.323 39.15C151.806 38.7 152.423 38.475 153.173 38.475C153.906 38.475 154.506 38.7 154.973 39.15C155.456 39.5833 155.698 40.1333 155.698 40.8C155.698 41.45 155.456 42 154.973 42.45C154.506 42.8833 153.906 43.1 153.173 43.1ZM155.298 44.55V58.5H151.023V44.55H155.298ZM166.896 44.4C168.529 44.4 169.829 44.9333 170.796 46C171.779 47.05 172.271 48.5 172.271 50.35V58.5H168.021V50.925C168.021 49.9917 167.779 49.2667 167.296 48.75C166.812 48.2333 166.162 47.975 165.346 47.975C164.529 47.975 163.879 48.2333 163.396 48.75C162.912 49.2667 162.671 49.9917 162.671 50.925V58.5H158.396V44.55H162.671V46.4C163.104 45.7833 163.687 45.3 164.421 44.95C165.154 44.5833 165.979 44.4 166.896 44.4ZM183.016 54.875V58.5H180.841C179.291 58.5 178.083 58.125 177.216 57.375C176.35 56.6083 175.916 55.3667 175.916 53.65V48.1H174.216V44.55H175.916V41.15H180.191V44.55H182.991V48.1H180.191V53.7C180.191 54.1167 180.291 54.4167 180.491 54.6C180.691 54.7833 181.025 54.875 181.491 54.875H183.016ZM198.548 51.3C198.548 51.7 198.523 52.1167 198.473 52.55H188.798C188.864 53.4167 189.139 54.0833 189.623 54.55C190.123 55 190.731 55.225 191.448 55.225C192.514 55.225 193.256 54.775 193.673 53.875H198.223C197.989 54.7917 197.564 55.6167 196.948 56.35C196.348 57.0833 195.589 57.6583 194.673 58.075C193.756 58.4917 192.731 58.7 191.598 58.7C190.231 58.7 189.014 58.4083 187.948 57.825C186.881 57.2417 186.048 56.4083 185.448 55.325C184.848 54.2417 184.548 52.975 184.548 51.525C184.548 50.075 184.839 48.8083 185.423 47.725C186.023 46.6417 186.856 45.8083 187.923 45.225C188.989 44.6417 190.214 44.35 191.598 44.35C192.948 44.35 194.148 44.6333 195.198 45.2C196.248 45.7667 197.064 46.575 197.648 47.625C198.248 48.675 198.548 49.9 198.548 51.3ZM194.173 50.175C194.173 49.4417 193.923 48.8583 193.423 48.425C192.923 47.9917 192.298 47.775 191.548 47.775C190.831 47.775 190.223 47.9833 189.723 48.4C189.239 48.8167 188.939 49.4083 188.823 50.175H194.173ZM205.078 46.875C205.578 46.1083 206.203 45.5083 206.953 45.075C207.703 44.625 208.536 44.4 209.453 44.4V48.925H208.278C207.211 48.925 206.411 49.1583 205.878 49.625C205.345 50.075 205.078 50.875 205.078 52.025V58.5H200.803V44.55H205.078V46.875ZM215.771 46.875C216.271 46.1083 216.896 45.5083 217.646 45.075C218.396 44.625 219.23 44.4 220.146 44.4V48.925H218.971C217.905 48.925 217.105 49.1583 216.571 49.625C216.038 50.075 215.771 50.875 215.771 52.025V58.5H211.496V44.55H215.771V46.875ZM235.965 44.55V58.5H231.69V56.6C231.256 57.2167 230.665 57.7167 229.915 58.1C229.181 58.4667 228.365 58.65 227.465 58.65C226.398 58.65 225.456 58.4167 224.64 57.95C223.823 57.4667 223.19 56.775 222.74 55.875C222.29 54.975 222.065 53.9167 222.065 52.7V44.55H226.315V52.125C226.315 53.0583 226.556 53.7833 227.04 54.3C227.523 54.8167 228.173 55.075 228.99 55.075C229.823 55.075 230.481 54.8167 230.965 54.3C231.448 53.7833 231.69 53.0583 231.69 52.125V44.55H235.965ZM243.31 46.525C243.727 45.875 244.302 45.35 245.035 44.95C245.769 44.55 246.627 44.35 247.61 44.35C248.76 44.35 249.802 44.6417 250.735 45.225C251.669 45.8083 252.402 46.6417 252.935 47.725C253.485 48.8083 253.76 50.0667 253.76 51.5C253.76 52.9333 253.485 54.2 252.935 55.3C252.402 56.3833 251.669 57.225 250.735 57.825C249.802 58.4083 248.76 58.7 247.61 58.7C246.644 58.7 245.785 58.5 245.035 58.1C244.302 57.7 243.727 57.1833 243.31 56.55V65.15H239.035V44.55H243.31V46.525ZM249.41 51.5C249.41 50.4333 249.11 49.6 248.51 49C247.927 48.3833 247.202 48.075 246.335 48.075C245.485 48.075 244.76 48.3833 244.16 49C243.577 49.6167 243.285 50.4583 243.285 51.525C243.285 52.5917 243.577 53.4333 244.16 54.05C244.76 54.6667 245.485 54.975 246.335 54.975C247.185 54.975 247.91 54.6667 248.51 54.05C249.11 53.4167 249.41 52.5667 249.41 51.5ZM263.778 54.875V58.5H261.603C260.053 58.5 258.845 58.125 257.978 57.375C257.111 56.6083 256.678 55.3667 256.678 53.65V48.1H254.978V44.55H256.678V41.15H260.953V44.55H263.753V48.1H260.953V53.7C260.953 54.1167 261.053 54.4167 261.253 54.6C261.453 54.7833 261.786 54.875 262.253 54.875H263.778ZM279.309 51.3C279.309 51.7 279.284 52.1167 279.234 52.55H269.559C269.626 53.4167 269.901 54.0833 270.384 54.55C270.884 55 271.493 55.225 272.209 55.225C273.276 55.225 274.018 54.775 274.434 53.875H278.984C278.751 54.7917 278.326 55.6167 277.709 56.35C277.109 57.0833 276.351 57.6583 275.434 58.075C274.518 58.4917 273.493 58.7 272.359 58.7C270.993 58.7 269.776 58.4083 268.709 57.825C267.643 57.2417 266.809 56.4083 266.209 55.325C265.609 54.2417 265.309 52.975 265.309 51.525C265.309 50.075 265.601 48.8083 266.184 47.725C266.784 46.6417 267.618 45.8083 268.684 45.225C269.751 44.6417 270.976 44.35 272.359 44.35C273.709 44.35 274.909 44.6333 275.959 45.2C277.009 45.7667 277.826 46.575 278.409 47.625C279.009 48.675 279.309 49.9 279.309 51.3ZM274.934 50.175C274.934 49.4417 274.684 48.8583 274.184 48.425C273.684 47.9917 273.059 47.775 272.309 47.775C271.593 47.775 270.984 47.9833 270.484 48.4C270.001 48.8167 269.701 49.4083 269.584 50.175H274.934ZM280.715 51.5C280.715 50.0667 280.981 48.8083 281.515 47.725C282.065 46.6417 282.806 45.8083 283.74 45.225C284.673 44.6417 285.715 44.35 286.865 44.35C287.781 44.35 288.615 44.5417 289.365 44.925C290.131 45.3083 290.731 45.825 291.165 46.475V40H295.44V58.5H291.165V56.5C290.765 57.1667 290.19 57.7 289.44 58.1C288.706 58.5 287.848 58.7 286.865 58.7C285.715 58.7 284.673 58.4083 283.74 57.825C282.806 57.225 282.065 56.3833 281.515 55.3C280.981 54.2 280.715 52.9333 280.715 51.5ZM291.165 51.525C291.165 50.4583 290.865 49.6167 290.265 49C289.681 48.3833 288.965 48.075 288.115 48.075C287.265 48.075 286.54 48.3833 285.94 49C285.356 49.6 285.065 50.4333 285.065 51.5C285.065 52.5667 285.356 53.4167 285.94 54.05C286.54 54.6667 287.265 54.975 288.115 54.975C288.965 54.975 289.681 54.6667 290.265 54.05C290.865 53.4333 291.165 52.5917 291.165 51.525Z" fill="#113A5B"/>
</g>
<defs>
<clipPath id="clip0_351_1520">
<rect width="297" height="99" rx="4" fill="white"/>
</clipPath>
<clipPath id="clip1_351_1520">
<rect width="99" height="99" rx="49.5" fill="white"/>
</clipPath>
</defs>
</svg>
