<?xml version="1.0" standalone="no"?>
<!DOCTYPE svg PUBLIC "-//W3C//DTD SVG 20010904//EN"
 "http://www.w3.org/TR/2001/REC-SVG-20010904/DTD/svg10.dtd">
<svg version="1.0" xmlns="http://www.w3.org/2000/svg"
 width="500.000000pt" height="443.000000pt" viewBox="0 0 500.000000 443.000000"
 preserveAspectRatio="xMidYMid meet">

<g transform="translate(0.000000,443.000000) scale(0.100000,-0.100000)"
fill="#000000" stroke="none">
<path d="M738 4403 c11 -16 31 -51 46 -80 32 -65 47 -75 39 -28 -5 34 -5 35
26 35 l32 0 -7 -75 c-6 -70 -5 -75 17 -94 13 -11 40 -34 60 -50 20 -17 44 -31
53 -31 9 0 16 -4 16 -9 0 -21 134 -130 145 -119 3 3 -1 18 -10 34 -8 16 -15
35 -15 42 0 6 -4 12 -10 12 -5 0 -10 5 -10 11 0 6 7 9 15 6 8 -4 17 -1 21 5 5
7 -2 9 -20 6 -23 -5 -29 -1 -43 31 -18 40 -23 92 -9 102 7 6 14 43 15 92 1 11
10 21 20 24 54 14 18 55 -59 67 -69 11 -80 16 -73 32 4 11 -5 14 -42 14 -49 0
-74 -18 -95 -67 -6 -14 -18 -23 -30 -23 -13 0 -18 4 -14 11 7 13 -54 79 -74
79 -10 0 -8 -7 6 -27z"/>
<path d="M1730 4414 c0 -14 3 -15 18 -3 9 7 19 15 21 16 2 2 -5 3 -17 3 -14 0
-22 -6 -22 -16z"/>
<path d="M2485 4418 c-2 -7 -13 -54 -24 -104 -11 -50 -23 -98 -27 -108 -6 -14
-2 -17 17 -15 13 2 30 -1 38 -5 10 -6 12 -5 7 2 -4 7 -2 12 3 12 6 0 11 -4 11
-9 0 -5 8 -8 18 -6 9 2 20 4 24 4 18 2 29 73 19 123 -6 29 -12 67 -14 83 -3
25 -8 30 -35 33 -20 2 -34 -2 -37 -10z"/>
<path d="M3038 4423 c6 -2 18 -2 25 0 6 3 1 5 -13 5 -14 0 -19 -2 -12 -5z"/>
<path d="M3520 4425 c0 -10 85 -120 103 -133 10 -8 25 -22 35 -31 32 -34 122
-90 178 -110 138 -52 278 -44 410 22 38 19 81 37 97 41 16 4 27 13 27 24 0 9
2 56 4 105 l5 87 -180 0 c-136 0 -185 -3 -202 -14 -41 -26 -91 -28 -120 -6
-31 24 -107 28 -107 5 0 -41 -99 -47 -154 -10 -32 22 -96 35 -96 20z"/>
<path d="M4847 4408 c-10 -11 -17 -21 -15 -22 2 -1 11 -8 20 -15 15 -11 20
-10 33 2 19 20 19 27 -1 27 -10 0 -14 6 -10 15 8 21 -5 17 -27 -7z"/>
<path d="M4900 4426 c0 -10 28 -13 41 -5 10 6 7 9 -13 9 -16 0 -28 -2 -28 -4z"/>
<path d="M4978 4388 c-2 -30 -8 -43 -18 -43 -19 0 -85 -58 -71 -63 5 -2 7 -10
4 -18 -3 -7 -8 -12 -12 -10 -4 3 -7 -7 -6 -22 0 -17 6 -28 17 -30 21 -4 31 28
19 61 -8 20 -7 30 4 41 16 16 54 31 61 24 2 -3 7 -133 10 -289 4 -156 8 -286
10 -288 2 -2 4 149 4 337 0 208 -4 342 -9 342 -6 0 -11 -19 -13 -42z"/>
<path d="M1726 4338 c-5 -10 -6 -25 -2 -33 6 -17 36 -21 36 -5 0 6 -4 10 -9
10 -5 0 -11 10 -14 23 -3 19 -4 20 -11 5z"/>
<path d="M2340 4320 c-33 -48 -40 -56 -76 -94 -17 -18 -40 -46 -50 -62 -53
-83 -134 -160 -134 -126 0 4 -44 7 -97 7 -72 0 -107 -5 -131 -17 -18 -9 -29
-12 -26 -6 4 6 -3 5 -16 -2 -31 -17 -34 -12 -44 80 -2 19 -7 42 -11 51 -3 10
-5 23 -4 30 1 8 -1 22 -5 32 -10 21 0 51 14 42 6 -3 7 1 4 9 -3 9 -10 14 -14
11 -5 -3 -12 -1 -15 5 -5 8 -11 7 -21 -1 -7 -6 -12 -14 -9 -18 2 -4 -2 -34
-10 -67 -7 -32 -16 -103 -20 -156 -4 -54 -11 -98 -16 -98 -5 0 -9 -7 -9 -16 0
-9 -9 -18 -20 -21 -11 -3 -20 -10 -20 -15 0 -6 -7 -7 -15 -4 -9 3 -18 -1 -21
-9 -4 -8 -14 -15 -24 -15 -11 0 -20 -10 -24 -25 -4 -14 -11 -25 -16 -25 -13 0
-90 -77 -90 -90 0 -5 -9 -10 -20 -10 -14 0 -20 -7 -20 -21 l0 -20 -28 20 c-15
10 -37 19 -47 18 -13 -1 -25 10 -37 36 -31 64 -79 59 -73 -8 3 -32 2 -34 -16
-25 -15 8 -19 7 -19 -5 0 -8 -5 -15 -11 -15 -5 0 -7 5 -4 10 3 6 1 10 -4 10
-6 0 -11 -4 -11 -10 0 -5 -7 -10 -15 -10 -8 0 -15 5 -15 11 0 8 -12 9 -37 4
-21 -4 -51 -9 -68 -12 -16 -3 -31 -6 -33 -8 -2 -2 -8 -50 -14 -108 l-10 -105
31 -70 c17 -39 31 -79 32 -89 0 -16 1 -16 9 2 8 18 9 18 9 2 1 -10 5 -16 11
-12 5 3 6 13 3 22 -5 12 -3 14 6 8 10 -5 11 -2 7 13 -5 15 -1 21 19 26 14 4
25 13 25 22 0 11 6 13 20 9 14 -5 20 -2 20 10 0 9 -3 14 -7 12 -5 -2 -18 7
-30 20 -16 16 -18 23 -8 23 8 0 18 6 22 13 7 12 73 36 147 53 l29 7 -30 27
c-17 15 -35 29 -40 31 -23 9 -24 48 -3 69 29 29 71 23 88 -12 7 -16 16 -28 20
-28 4 0 16 -7 26 -15 16 -12 17 -17 6 -30 -7 -8 -10 -22 -6 -30 3 -8 1 -28 -5
-43 -14 -35 7 -381 27 -437 8 -24 10 -41 4 -43 -6 -2 -10 -15 -10 -28 0 -17
-6 -24 -20 -24 -18 0 -19 -5 -14 -67 11 -157 14 -180 27 -218 l15 -40 10 35
c8 27 10 30 11 12 1 -13 -4 -32 -10 -43 -15 -29 5 -81 40 -102 23 -13 34 -34
56 -99 15 -46 34 -94 42 -106 13 -21 13 -26 -3 -43 -17 -19 -17 -20 2 -13 14
4 16 4 5 -4 -8 -6 -21 -8 -29 -4 -11 4 -14 1 -9 -12 4 -9 3 -15 -2 -11 -5 3
-16 -4 -25 -16 -13 -20 -12 -27 10 -76 29 -68 39 -182 16 -199 -13 -9 -10 -12
13 -18 21 -5 25 -10 16 -15 -14 -9 -92 8 -129 28 -27 14 -30 -2 -3 -21 21 -15
56 -78 43 -78 -5 0 -16 -16 -25 -36 -10 -19 -22 -32 -27 -29 -6 3 -7 -1 -4
-10 5 -12 0 -15 -22 -14 -16 1 -38 -2 -49 -6 -16 -6 -14 -1 9 23 32 34 26 44
-8 14 -64 -57 -240 -94 -402 -84 l-92 5 -113 -117 c-122 -127 -139 -150 -176
-241 -13 -33 -35 -81 -49 -107 -28 -54 -24 -90 7 -62 29 26 23 7 -12 -36 -17
-21 -28 -43 -25 -48 7 -12 -20 -79 -34 -84 -9 -3 -65 -152 -144 -385 l-21 -63
-45 1 c-25 0 -78 4 -117 8 -71 7 -73 6 -73 -15 0 -25 15 -29 150 -40 47 -4 88
-8 92 -10 3 -2 4 -13 1 -25 -5 -17 -11 -20 -37 -15 -17 2 -70 8 -119 12 l-87
6 0 -256 0 -256 211 0 c200 0 211 1 198 18 -13 16 -13 16 7 0 19 -17 145 -18
2302 -18 l2282 0 0 65 0 65 -42 1 c-81 2 -100 11 -130 59 -36 59 -42 72 -67
153 -12 38 -33 85 -46 105 -30 45 -32 60 -4 33 25 -23 128 -75 201 -100 29
-11 61 -22 71 -26 16 -7 17 14 17 364 0 364 0 371 -20 371 -11 0 -20 4 -20 9
0 5 -15 14 -32 22 -18 7 -35 16 -38 20 -10 12 -50 21 -50 10 0 -21 -55 -11
-80 14 -37 36 -44 46 -60 85 -7 19 -20 44 -27 55 -19 28 -17 33 17 40 17 4 30
13 30 21 0 10 8 14 23 12 13 -2 21 -9 20 -18 -2 -8 10 -24 27 -35 16 -10 33
-30 39 -42 12 -26 23 -28 54 -12 15 9 22 9 25 1 2 -6 9 -9 15 -7 7 3 27 -17
45 -43 l32 -47 -2 70 c-3 70 -3 70 -33 73 -66 8 -74 42 -10 42 38 0 45 3 45
20 0 18 -7 20 -77 20 -85 0 -309 17 -332 26 -10 3 -11 8 -3 16 6 6 8 17 5 24
-3 8 0 14 6 14 6 0 11 6 11 13 0 7 6 21 13 30 10 14 18 15 44 8 34 -10 43 -1
43 44 0 15 7 25 21 28 23 6 21 30 -3 35 -9 2 -23 -4 -31 -13 -9 -8 -18 -15
-21 -15 -8 0 6 34 17 41 5 4 7 17 5 30 -2 20 -9 13 -39 -41 -20 -36 -44 -86
-54 -111 -9 -26 -34 -64 -56 -85 -21 -21 -39 -43 -39 -49 0 -6 16 -24 34 -39
49 -38 144 -229 126 -251 -7 -8 -21 -15 -30 -15 -26 0 -80 32 -80 48 0 6 -9
12 -21 12 -37 0 -77 32 -101 81 -22 47 -38 62 -38 37 0 -28 -22 12 -35 63 -7
30 -19 70 -25 89 -7 19 -17 47 -22 62 -6 17 -39 47 -86 79 -42 29 -70 55 -63
57 15 5 -7 27 -141 135 -96 77 -114 94 -106 103 7 6 63 -40 164 -133 82 -75
128 -106 119 -80 -3 7 4 23 14 36 l19 24 12 -23 c10 -18 9 -24 -1 -30 -7 -5
-14 -16 -15 -24 -1 -9 2 -14 6 -11 5 3 11 1 15 -5 13 -22 76 -11 116 21 26 20
45 28 58 24 14 -4 24 3 41 31 13 19 30 43 40 52 38 37 140 162 140 171 0 6
-15 17 -32 25 -18 8 -52 26 -75 41 -36 22 -43 23 -43 9 0 -10 -5 -14 -14 -11
-8 3 -17 -1 -20 -9 -4 -10 -2 -13 7 -8 6 4 8 3 4 -1 -4 -5 -13 -10 -20 -11
-31 -5 -43 -10 -54 -24 -11 -13 -13 -12 -13 5 -1 14 -3 16 -7 5 -4 -8 -16 -22
-27 -32 -12 -10 -16 -17 -8 -18 10 0 10 -4 0 -20 -7 -10 -14 -17 -17 -15 -7 8
-30 -29 -31 -47 0 -10 -5 -18 -11 -18 -5 0 -7 4 -4 10 4 6 -1 7 -11 3 -13 -5
-10 6 14 49 18 30 32 62 32 70 0 40 27 67 108 107 l83 41 30 -32 c30 -33 40
-28 14 6 -8 11 -15 27 -15 37 0 14 -18 17 -157 18 -87 1 -168 5 -181 8 -18 4
-32 -3 -58 -28 -41 -39 -42 -46 -9 -61 14 -6 25 -15 25 -20 0 -5 -27 9 -59 32
-67 45 -81 49 -81 21 0 -20 -74 -66 -90 -56 -4 3 -20 1 -34 -5 -32 -12 -45 5
-16 22 11 7 20 16 20 20 0 5 18 24 40 44 22 20 40 39 40 43 0 12 -296 78 -306
68 -8 -8 23 -141 35 -145 22 -7 100 -75 95 -83 -8 -14 -30 -11 -44 6 -16 20
-131 98 -136 92 -9 -9 126 -128 138 -122 18 9 -29 -29 -74 -61 -37 -26 -40
-26 -100 -15 -35 7 -85 19 -111 27 -39 13 -46 18 -36 30 9 11 2 26 -34 72 -26
31 -56 69 -67 85 -26 33 -37 34 -52 2 -10 -23 -6 -29 56 -91 36 -37 64 -69 62
-72 -3 -2 -29 10 -60 27 -54 32 -157 71 -183 71 -11 0 -13 -8 -8 -30 4 -17 3
-30 0 -30 -4 0 -49 21 -99 47 -50 26 -92 48 -94 49 -1 1 1 12 6 25 14 37 -2
69 -35 69 -29 0 -59 32 -48 50 9 14 52 12 61 -2 4 -7 3 -8 -4 -4 -7 4 -12 3
-12 -3 0 -17 20 -23 91 -28 67 -5 81 1 58 24 -17 17 7 26 29 12 17 -11 24 -7
50 22 32 35 39 54 23 64 -5 3 -65 -8 -133 -24 -183 -45 -175 -45 -228 17 -25
29 -60 62 -78 74 -36 22 -38 41 -4 46 31 5 27 19 -8 37 -28 15 -39 38 -22 48
4 3 25 8 48 11 l41 7 62 -80 c34 -45 67 -81 73 -81 5 0 22 6 36 14 15 8 54 22
87 31 93 26 125 38 125 47 0 4 8 8 18 8 26 0 54 33 46 54 -9 22 -13 21 -50
-19 -26 -29 -39 -35 -72 -35 -32 0 -41 -4 -45 -21 -8 -29 -34 -21 -80 24 -29
29 -44 37 -61 33 -19 -5 -27 1 -42 29 -20 38 -38 46 -71 32 -22 -10 -28 -6
-101 54 -10 8 -10 14 -1 25 10 13 16 11 39 -11 31 -30 47 -31 80 -5 14 11 40
20 57 20 33 0 33 0 27 -42 -5 -37 -2 -46 19 -66 22 -21 25 -21 31 -6 3 9 6
232 6 496 0 365 -3 486 -12 506 -12 24 -24 28 -133 48 -66 13 -132 23 -147 23
-24 1 -33 12 -27 34 0 1 -4 14 -10 29 -6 17 -7 29 -1 33 20 13 10 52 -20 75
-22 17 -27 26 -18 31 9 6 8 10 -5 15 -9 3 -17 12 -17 20 0 8 -9 14 -20 14 -11
0 -20 5 -20 11 0 17 -27 39 -50 39 -11 0 -23 7 -26 15 -4 8 -13 15 -21 15 -8
0 -11 5 -8 10 3 6 1 10 -6 10 -8 0 -8 4 1 15 10 13 9 15 -9 15 -11 0 -21 6
-21 13 0 8 -7 14 -15 14 -8 0 -15 -5 -15 -10 0 -5 -11 -2 -25 7 -14 9 -25 14
-25 11 0 -6 -79 34 -90 45 -3 3 -12 5 -20 5 -8 0 -15 9 -15 20 0 13 7 20 19
20 10 0 24 9 30 20 6 11 26 42 44 68 41 61 74 143 70 176 l-3 26 -25 -35z
m-172 -315 c-3 -3 -9 2 -12 12 -6 14 -5 15 5 6 7 -7 10 -15 7 -18z m-340 -507
c-6 -17 -38 -18 -38 -1 0 9 6 13 14 10 10 -4 12 1 9 16 -4 20 -3 20 7 4 6 -10
10 -23 8 -29z m-67 -2 c-6 -14 -15 -26 -21 -26 -14 0 -12 12 6 38 20 29 28 23
15 -12z m-97 -45 c3 -5 -1 -12 -10 -15 -22 -9 -24 -8 -24 9 0 16 25 21 34 6z
m166 -121 c0 -5 -4 -10 -10 -10 -5 0 -10 5 -10 10 0 6 5 10 10 10 6 0 10 -4
10 -10z m22 -24 c10 -1 20 -5 24 -9 3 -3 16 0 28 8 19 12 23 12 42 -8 48 -50
57 -92 18 -83 -14 4 -55 9 -91 11 -36 3 -75 7 -87 10 -17 5 -18 4 -6 -4 12 -9
9 -11 -15 -11 -16 0 -41 -9 -55 -20 -14 -11 -38 -20 -54 -20 -64 0 -141 -72
-129 -119 3 -12 -2 -39 -11 -61 -9 -22 -16 -63 -16 -91 0 -46 2 -50 21 -44 21
7 89 -19 89 -35 0 -5 -9 -12 -20 -15 -11 -3 -20 -11 -20 -16 0 -13 16 -11 29
4 17 22 78 20 84 -2 8 -32 -9 -43 -70 -44 -17 -1 -31 -6 -30 -11 1 -6 -9 -12
-22 -14 -21 -3 -23 -1 -17 22 7 27 -11 47 -24 26 -4 -6 -10 -11 -14 -11 -22 3
-27 -2 -26 -21 5 -54 0 -89 -11 -82 -7 4 -10 27 -7 63 3 31 2 99 -2 151 -3 52
-3 99 2 105 4 5 8 23 8 41 0 36 31 115 37 97 3 -7 9 -13 15 -13 6 0 8 7 4 15
-3 8 -1 15 4 15 6 0 10 12 11 28 0 15 3 21 6 15 7 -18 23 -16 23 3 0 8 4 13 9
10 16 -10 63 13 55 26 -6 10 -4 11 7 1 7 -7 24 -13 39 -12 23 0 23 1 5 9 -17
7 -17 9 -2 9 9 1 17 5 17 9 0 4 15 25 34 46 31 33 39 36 68 31 18 -3 41 -7 50
-9z m289 -33 c0 -16 3 -22 6 -15 6 15 36 16 31 0 -5 -14 -88 -39 -101 -31 -6
3 -7 1 -3 -5 10 -16 -6 -15 -29 2 -21 15 -14 46 10 46 9 0 23 7 31 15 26 25
54 19 55 -12z m-72 -233 c40 -21 50 -53 38 -110 l-12 -54 37 -37 c21 -21 38
-42 38 -48 0 -19 -47 -32 -76 -21 -14 6 -23 6 -20 1 6 -10 -22 -19 -87 -28
-23 -3 -49 -9 -57 -13 -16 -8 -48 -6 -57 4 -11 11 28 56 65 75 20 11 30 20 22
21 -8 0 -1 11 19 28 32 27 33 27 21 75 -12 44 -11 50 11 82 26 38 31 40 58 25z
m156 -236 c30 -30 25 -48 -10 -32 -16 7 -25 19 -25 35 0 29 3 29 35 -3z m735
-380 c0 -8 -5 -12 -10 -9 -6 4 -8 11 -5 16 9 14 15 11 15 -7z m40 -54 c0 -5
-2 -10 -4 -10 -3 0 -8 5 -11 10 -3 6 -1 10 4 10 6 0 11 -4 11 -10z m1011 -414
c-28 -29 -91 -73 -91 -63 0 2 10 15 23 29 12 13 31 36 41 50 13 17 25 24 38
20 18 -4 17 -7 -11 -36z m554 -46 c3 -5 1 -10 -4 -10 -6 0 -11 5 -11 10 0 6 2
10 4 10 3 0 8 -4 11 -10z m-165 -60 c0 -11 -7 -20 -15 -20 -13 0 -14 4 -5 20
6 11 13 20 15 20 3 0 5 -9 5 -20z m-767 -47 c-7 -2 -21 -2 -30 0 -10 3 -4 5
12 5 17 0 24 -2 18 -5z m744 -6 c5 -6 -20 -9 -43 -6 -4 0 -11 -5 -15 -13 -7
-10 -9 -10 -9 3 0 9 3 18 6 22 7 7 52 3 61 -6z m-418 -49 c13 -10 20 -18 16
-18 -16 0 -95 51 -95 61 0 9 33 -8 79 -43z m-219 32 c18 -12 2 -12 -25 0 -13
6 -15 9 -5 9 8 0 22 -4 30 -9z m-2322 -25 c-6 -14 -13 -23 -15 -21 -5 5 15 46
22 46 3 0 -1 -11 -7 -25z m2898 -51 c15 -4 21 -13 20 -30 -1 -27 -11 -32 -20
-9 -3 8 -14 15 -25 15 -24 0 -36 16 -19 23 18 7 20 7 44 1z m-3027 -58 c-18
-25 -37 -46 -42 -46 -6 0 -2 10 9 23 11 12 28 35 38 50 10 16 20 26 23 23 3
-2 -10 -25 -28 -50z m-268 -3 c-6 -10 -30 -40 -54 -67 l-43 -49 -78 -6 c-69
-6 -81 -10 -102 -34 -13 -15 -31 -27 -41 -27 -22 1 51 68 115 107 44 26 191
93 205 93 4 0 3 -8 -2 -17z m345 -75 c-8 -41 -26 -61 -26 -29 0 14 -4 20 -12
15 -6 -4 -3 5 8 19 26 36 38 34 30 -5z m-186 -52 c0 -2 -8 -10 -17 -17 -16
-13 -17 -12 -4 4 13 16 21 21 21 13z m50 -4 c0 -5 -11 -14 -25 -20 -16 -7 -25
-8 -25 -1 0 5 10 14 23 19 29 11 27 11 27 2z m80 -23 c0 -6 -6 -9 -12 -6 -7 2
-22 0 -33 -5 -20 -9 -20 -9 -1 6 23 18 46 21 46 5z m-138 -41 c-7 -7 -12 -8
-12 -2 0 14 12 26 19 19 2 -3 -1 -11 -7 -17z m2645 0 c-3 -8 -6 -5 -6 6 -1 11
2 17 5 13 3 -3 4 -12 1 -19z m-2591 -35 c-10 -10 -19 5 -10 18 6 11 8 11 12 0
2 -7 1 -15 -2 -18z m104 -8 c-7 -8 -20 -15 -29 -15 -11 1 -8 5 9 15 32 18 35
18 20 0z m-204 -42 c-3 -8 -1 -11 4 -8 13 8 13 -8 1 -20 -6 -6 -15 -73 -20
-149 -6 -77 -15 -144 -21 -150 -6 -6 -7 -53 -4 -125 5 -90 3 -126 -9 -161 -16
-49 -6 -82 22 -73 9 3 3 -4 -14 -15 -16 -11 -42 -24 -57 -27 -27 -7 -28 -6
-28 33 0 31 -4 42 -19 47 -16 5 -32 26 -32 45 -1 3 -5 10 -10 16 -5 6 -12 39
-15 73 -4 34 -11 64 -16 67 -5 3 -6 -7 -3 -23 l6 -28 -15 25 c-13 23 -13 32 2
84 l16 58 37 -5 c32 -4 37 -2 32 12 -4 13 -2 13 11 -3 8 -10 19 -15 24 -12 6
3 12 -4 14 -17 6 -41 3 -222 -6 -250 -7 -22 -5 -26 7 -21 22 8 29 47 28 159
-1 66 -6 102 -14 107 -8 5 -8 11 -2 16 26 19 43 73 48 157 9 145 19 215 29
209 5 -3 7 -13 4 -21z m274 1 c0 -2 -9 -4 -20 -4 -11 0 -20 4 -20 9 0 5 9 7
20 4 11 -3 20 -7 20 -9z m-580 -68 c0 -14 -4 -27 -9 -31 -5 -3 -9 8 -9 25 1
36 18 41 18 6z m26 -61 c-20 -30 -20 -36 -2 -29 21 8 34 -44 21 -84 -15 -44
-35 -64 -35 -34 0 12 -4 22 -9 22 -6 0 -9 18 -8 39 1 22 -1 37 -5 35 -10 -7 2
58 13 71 5 5 9 17 9 26 0 10 6 19 13 22 18 6 21 -41 3 -68z m2461 43 c-3 -7
-5 -2 -5 12 0 14 2 19 5 13 2 -7 2 -19 0 -25z m-10 -60 c-3 -7 -5 -2 -5 12 0
14 2 19 5 13 2 -7 2 -19 0 -25z m-2067 -28 c12 -8 12 -10 -3 -16 -9 -3 -17
-12 -17 -19 0 -7 8 -16 17 -19 15 -6 15 -8 3 -16 -12 -7 -12 -12 -2 -22 19
-19 14 -49 -14 -75 -21 -19 -25 -20 -19 -6 4 10 7 25 6 33 -1 18 -3 120 -2
138 1 14 11 15 31 2z m45 -21 c0 -8 3 -18 7 -24 18 -30 26 -85 14 -101 -10
-13 -15 -14 -20 -5 -5 7 -6 15 -3 18 3 3 1 17 -5 32 -15 38 -18 103 -4 98 6
-2 11 -10 11 -18z m343 -104 c0 -5 -6 4 -13 20 -8 17 -14 37 -14 45 0 8 7 -1
14 -20 7 -19 13 -39 13 -45z m-870 20 c-3 -13 -1 -26 4 -27 4 -2 10 -17 12
-33 2 -17 7 -42 11 -57 6 -23 4 -27 -13 -23 -16 3 -19 -1 -15 -18 4 -18 3 -19
-6 -7 -7 10 -11 11 -11 2 0 -8 -15 -2 -40 14 -41 27 -53 57 -22 53 49 -5 52
-2 36 36 -14 35 -11 61 6 50 5 -3 14 4 20 15 15 27 23 25 18 -5z m205 -20 c-3
-9 -8 -14 -10 -11 -3 3 -2 9 2 15 9 16 15 13 8 -4z m2057 -5 c0 -5 -7 -10 -16
-10 -8 0 -12 5 -9 10 3 6 10 10 16 10 5 0 9 -4 9 -10z m-1689 -43 c-11 -12
-24 -18 -27 -14 -10 10 27 48 38 41 6 -4 1 -16 -11 -27z m-51 4 c0 -6 -4 -13
-10 -16 -5 -3 -10 -11 -10 -17 0 -7 6 -6 15 2 8 7 15 8 15 2 0 -17 43 -22 60
-7 15 13 19 10 37 -33 12 -26 24 -63 28 -82 4 -19 14 -46 22 -58 8 -13 13 -25
11 -26 -30 -17 -309 -136 -358 -152 -8 -3 -2 2 15 12 56 33 56 30 62 198 l5
119 35 33 c34 32 73 45 73 25z m2030 0 c-41 -4 -91 -15 -110 -24 -19 -10 -29
-12 -22 -5 23 23 76 36 142 36 l65 -1 -75 -6z m-1853 -23 c-3 -8 -6 -5 -6 6
-1 11 2 17 5 13 3 -3 4 -12 1 -19z m1993 12 c0 -5 -4 -10 -10 -10 -5 0 -10 5
-10 10 0 6 5 10 10 10 6 0 10 -4 10 -10z m-70 -14 c0 -4 7 -5 15 -2 9 3 18 -1
22 -10 7 -19 -2 -28 -18 -18 -7 4 -39 6 -71 5 -49 -2 -58 0 -58 14 0 11 5 15
15 11 8 -3 15 -2 15 2 0 4 18 7 40 7 22 0 40 -4 40 -9z m-2249 -29 c-8 -8 -11
-7 -11 4 0 20 13 34 18 19 3 -7 -1 -17 -7 -23z m2113 7 c3 -8 2 -13 -3 -10 -5
3 -11 -1 -15 -9 -7 -19 -26 -20 -26 0 0 11 22 32 36 35 1 0 5 -7 8 -16z m230
-16 c-9 -14 -24 -8 -24 10 0 14 -2 15 -10 2 -5 -8 -10 -10 -10 -4 0 6 3 13 6
17 8 8 44 -15 38 -25z m-1849 2 c3 -6 -1 -7 -9 -4 -18 7 -21 14 -7 14 6 0 13
-4 16 -10z m1879 -14 c-4 -11 0 -13 15 -9 14 3 23 0 27 -11 3 -9 10 -13 16
-10 5 3 12 -3 15 -14 2 -11 14 -23 25 -25 11 -3 17 -10 14 -15 -3 -6 -2 -12 4
-14 6 -2 6 -8 0 -18 -8 -13 -10 -12 -10 3 0 10 -5 15 -11 12 -6 -4 -13 2 -16
13 -2 11 -14 23 -25 25 -13 4 -17 10 -12 18 5 9 2 11 -8 6 -9 -3 -23 2 -32 12
-18 20 -21 41 -6 41 5 0 7 -6 4 -14z m-104 -15 c0 -11 5 -23 10 -26 16 -10 12
-25 -5 -18 -9 3 -15 1 -13 -5 2 -5 -1 -10 -7 -10 -5 -1 -9 6 -9 14 1 8 -2 14
-7 14 -5 0 -3 11 3 25 13 30 28 33 28 6z m-257 -50 c-15 -22 -35 -40 -43 -41
-10 0 -11 -3 -3 -11 16 -16 4 -49 -18 -49 -11 0 -19 4 -19 10 0 5 7 7 15 4 10
-4 15 0 15 11 0 12 -5 15 -17 11 -12 -4 -8 3 8 18 15 13 40 42 55 66 16 23 30
38 32 32 2 -6 -10 -28 -25 -51z m151 -16 c-7 -17 -34 -21 -34 -5 0 5 -8 7 -17
3 -15 -5 -16 -3 -5 8 6 7 12 23 12 36 l0 22 25 -25 c14 -14 22 -31 19 -39z
m342 33 l29 -33 -32 29 c-31 28 -38 36 -30 36 2 0 16 -15 33 -32z m-2993 -52
c31 -44 4 -22 -34 27 -23 28 -26 36 -10 22 13 -11 33 -33 44 -49z m827 49 c0
-8 -4 -15 -10 -15 -5 0 -10 7 -10 15 0 8 5 15 10 15 6 0 10 -7 10 -15z m35
-37 c4 -29 12 -62 17 -73 7 -16 5 -16 -11 4 -12 13 -21 37 -21 56 0 18 -3 40
-6 49 -3 9 -2 16 4 16 6 0 13 -24 17 -52z m2011 17 c-3 -8 -1 -26 3 -39 9 -21
7 -23 -21 -24 -22 0 -28 3 -24 14 3 8 0 14 -7 14 -7 1 0 8 16 16 15 8 27 19
27 24 0 6 3 10 6 10 3 0 4 -7 0 -15z m165 -32 c13 -16 12 -17 -3 -4 -10 7 -18
15 -18 17 0 8 8 3 21 -13z m-284 -9 c-3 -3 -12 -4 -19 -1 -8 3 -5 6 6 6 11 1
17 -2 13 -5z m21 -31 c46 -30 62 -49 72 -83 9 -31 8 -32 -15 -28 -13 3 -22 1
-19 -3 3 -5 14 -9 24 -9 17 0 38 -35 27 -46 -3 -3 -18 1 -34 9 -37 19 -123 37
-178 37 -38 0 -45 3 -45 20 0 10 10 29 23 41 12 12 16 19 10 15 -16 -9 -16 -1
-2 25 21 39 92 51 137 22z m239 1 c-3 -3 -12 -4 -19 -1 -8 3 -5 6 6 6 11 1 17
-2 13 -5z m-640 -46 c-3 -7 -5 -2 -5 12 0 14 2 19 5 13 2 -7 2 -19 0 -25z
m645 25 c-10 -4 -10 -8 -1 -19 10 -12 14 -12 20 -2 7 10 9 9 9 -3 0 -9 -8 -20
-17 -23 -10 -4 -14 -4 -11 0 4 3 0 13 -8 21 -15 16 -10 34 9 32 8 0 8 -2 -1
-6z m77 -63 c0 -10 -3 -8 -9 5 -12 27 -12 43 0 25 5 -8 9 -22 9 -30z m-732
-47 c-3 -10 -5 -2 -5 17 0 19 2 27 5 18 2 -10 2 -26 0 -35z m697 29 c6 -10
-30 -9 -40 1 -4 4 2 7 14 7 11 0 23 -4 26 -8z m43 -49 c-3 -10 -5 -2 -5 17 0
19 2 27 5 18 2 -10 2 -26 0 -35z m-268 -28 c17 -8 31 -21 31 -28 0 -8 -3 -9
-8 -1 -18 28 -128 56 -217 57 -44 0 -46 0 -15 6 43 8 168 -12 209 -34z m-462
3 c-3 -8 -6 -5 -6 6 -1 11 2 17 5 13 3 -3 4 -12 1 -19z m-2737 -8 c0 -5 -2
-10 -4 -10 -3 0 -8 5 -11 10 -3 6 -1 10 4 10 6 0 11 -4 11 -10z m3020 -34 l0
-33 -35 11 c-26 8 -35 16 -35 33 0 20 5 23 35 23 33 0 35 -2 35 -34z m95 16
c36 -7 40 -11 43 -41 3 -31 2 -33 -25 -27 -15 4 -41 9 -57 12 -42 7 -46 11
-46 45 0 25 3 29 23 24 12 -3 40 -9 62 -13z m-320 -42 c13 0 14 -2 3 -14 -11
-12 -14 -12 -21 0 -11 19 -38 18 -31 -1 7 -17 -31 -21 -56 -5 -15 10 -14 10
23 14 6 0 16 10 21 22 9 20 10 20 28 2 10 -10 25 -18 33 -18z m428 5 c21 -15
18 -52 -4 -47 -7 2 -22 4 -31 5 -13 1 -18 10 -18 33 0 35 15 37 53 9z m-3440
8 c-7 -2 -21 -2 -30 0 -10 3 -5 5 12 5 17 0 24 -2 18 -5z m575 -51 c15 -13 1
-6 -30 14 -32 20 -58 39 -58 41 0 7 58 -29 88 -55z m3109 21 c-3 -10 -5 -4 -5
12 0 17 2 24 5 18 2 -7 2 -21 0 -30z m-3569 20 c-10 -2 -26 -2 -35 0 -10 3 -2
5 17 5 19 0 27 -2 18 -5z m2965 -44 c-9 -9 -12 -7 -10 9 1 14 5 18 11 12 7 -7
6 -14 -1 -21z m-28 12 c3 -5 1 -12 -5 -16 -5 -3 -10 1 -10 9 0 18 6 21 15 7z
m102 -11 c4 -13 3 -13 -6 0 -10 13 -11 13 -11 0 0 -10 -3 -11 -8 -4 -4 6 -14
14 -22 17 -8 4 -2 5 14 4 16 -1 31 -9 33 -17z m-182 -9 c173 -32 708 -141 713
-145 1 -2 -20 -2 -48 -2 -27 1 -50 4 -50 8 0 3 -9 4 -20 1 -12 -3 -20 0 -20 6
0 8 -12 10 -36 5 -29 -5 -35 -4 -29 6 6 10 4 12 -9 7 -10 -4 -27 -7 -37 -7
-11 0 -17 -5 -14 -10 4 -6 -3 -9 -16 -7 -12 2 -28 14 -35 28 -9 17 -13 19 -14
8 0 -15 -4 -15 -42 -2 -45 15 -68 12 -68 -11 0 -9 16 -19 38 -25 48 -14 59
-14 65 2 3 6 6 2 6 -10 1 -17 -4 -22 -16 -19 -10 2 -38 7 -62 11 l-43 8 5 43
c2 24 1 41 -4 38 -5 -3 -9 -12 -9 -20 0 -8 -4 -14 -9 -14 -22 0 -41 13 -41 29
0 9 -9 17 -22 18 -44 4 -83 10 -98 16 -8 3 -31 8 -50 10 -19 3 -42 8 -51 12
-9 3 -23 -1 -31 -9 -14 -13 -17 -12 -27 10 -14 31 -14 34 2 30 6 -2 39 -9 72
-15z m225 -12 c0 -11 -4 -17 -10 -14 -5 3 -10 15 -10 26 0 11 5 17 10 14 6 -3
10 -15 10 -26z m-1113 2 c0 -11 -5 -17 -9 -15 -4 3 -16 0 -25 -5 -10 -6 -12
-11 -5 -11 6 0 12 -8 12 -17 0 -15 -2 -15 -9 -4 -5 8 -16 11 -25 8 -10 -4 -16
-1 -16 9 0 13 -10 15 -50 12 -27 -1 -45 1 -41 5 5 5 40 10 77 11 46 2 68 7 67
15 -2 6 3 11 11 11 8 0 14 -9 13 -19z m1136 4 c-3 -9 -8 -14 -10 -11 -3 3 -2
9 2 15 9 16 15 13 8 -4z m28 -18 c-10 -9 -11 -8 -5 6 3 10 9 15 12 12 3 -3 0
-11 -7 -18z m26 -9 c-3 -8 -6 -5 -6 6 -1 11 2 17 5 13 3 -3 4 -12 1 -19z m24
-1 c-10 -9 -11 -8 -5 6 3 10 9 15 12 12 3 -3 0 -11 -7 -18z m363 -16 c-5 -24
-1 -35 22 -55 l29 -26 -40 6 c-22 3 -41 7 -42 8 -3 2 29 96 33 96 2 0 1 -13
-2 -29z m-294 9 c0 -5 -2 -10 -4 -10 -3 0 -8 5 -11 10 -3 6 -1 10 4 10 6 0 11
-4 11 -10z m50 3 c0 -5 -4 -14 -9 -22 -11 -17 -32 -5 -24 14 5 15 33 21 33 8z
m65 -13 c-3 -5 -12 -10 -18 -10 -7 0 -6 4 3 10 19 12 23 12 15 0z m-2932 -69
c10 -12 9 -12 -8 -3 -11 6 -31 21 -45 33 l-25 21 33 -19 c19 -10 39 -24 45
-32z m1637 5 c0 -12 -5 -7 -19 24 -11 24 -11 24 3 6 9 -11 16 -24 16 -30z
m778 37 c-11 -3 -15 -10 -11 -21 7 -18 5 -17 -16 11 -12 15 -11 17 15 16 16
-1 21 -3 12 -6z m49 -9 c-3 -3 -12 -4 -19 -1 -8 3 -5 6 6 6 11 1 17 -2 13 -5z
m600 -16 c-3 -8 -6 -5 -6 6 -1 11 2 17 5 13 3 -3 4 -12 1 -19z m-2192 2 c88
-5 0 -7 -272 -6 -222 1 -403 4 -403 9 0 9 500 7 675 -3z m1685 0 c11 -8 9 -9
-12 -8 -16 1 -28 6 -28 10 0 11 22 10 40 -2z m-2595 -99 c-7 -6 -95 80 -95 93
0 6 22 -12 50 -39 27 -27 47 -51 45 -54z m1230 89 c16 -7 13 -8 -13 -6 -17 2
-35 6 -39 9 -9 10 28 7 52 -3z m1421 -4 c10 -8 16 -18 11 -22 -4 -4 -7 -2 -7
4 0 7 -9 12 -20 12 -11 0 -20 5 -20 10 0 14 13 12 36 -4z m564 -31 c0 -18
-115 -135 -132 -135 -7 0 4 11 23 25 41 31 98 95 99 113 0 17 10 15 10 -3z
m-710 -30 c19 -19 32 -35 29 -35 -3 0 -20 16 -39 35 -19 19 -32 35 -29 35 3 0
20 -16 39 -35z m-2034 10 c10 -8 14 -15 7 -15 -6 0 -15 5 -18 10 -5 8 -12 7
-22 -2 -14 -11 -12 -14 13 -25 17 -7 22 -12 12 -13 -43 -1 -61 23 -36 48 15
15 20 15 44 -3z m134 -11 c0 -2 -11 -2 -25 2 -29 7 -34 -10 -7 -25 16 -10 16
-10 -1 -11 -23 0 -33 26 -17 45 9 11 17 12 31 4 10 -5 19 -12 19 -15z m69 -3
c0 -10 -2 -11 -6 -3 -2 6 -9 10 -14 6 -5 -3 -9 2 -9 10 0 10 6 13 15 10 8 -4
15 -14 14 -23z m581 8 c0 -5 -7 -9 -15 -9 -9 0 -12 6 -9 15 6 15 24 11 24 -6z
m400 17 c0 -3 -4 -8 -10 -11 -5 -3 -10 -1 -10 4 0 6 5 11 10 11 6 0 10 -2 10
-4z m1045 -26 c3 -6 -5 -10 -19 -10 -19 0 -26 5 -26 20 0 17 3 19 19 10 11 -5
23 -15 26 -20z m255 5 c0 -2 -9 -3 -20 -2 -11 1 -20 7 -20 14 0 11 5 11 20 3
11 -6 20 -13 20 -15z m-2173 -17 c-3 -7 -5 -2 -5 12 0 14 2 19 5 13 2 -7 2
-19 0 -25z m94 15 c13 -16 12 -17 -3 -4 -38 29 -67 -39 -32 -73 8 -9 11 -16 5
-16 -13 0 -31 33 -31 59 0 20 24 51 39 51 5 0 15 -8 22 -17z m94 7 c15 -7 10
-9 -22 -9 -24 -1 -43 4 -43 9 0 12 37 12 65 0z m65 -10 c0 -5 -7 -7 -15 -4 -8
4 -12 10 -9 15 6 11 24 2 24 -11z m-775 -55 l0 -58 120 -3 c66 -1 266 -5 445
-10 179 -4 343 -8 365 -8 39 -1 40 0 43 37 5 55 24 45 20 -10 l-3 -48 -130 1
c-71 0 -299 3 -505 5 l-375 4 -3 78 c-2 61 0 78 10 75 9 -3 13 -24 13 -63z
m2725 55 c0 -5 -4 -10 -10 -10 -5 0 -10 5 -10 10 0 6 5 10 10 10 6 0 10 -4 10
-10z m-2292 -58 c6 -19 7 -30 2 -27 -6 4 -10 12 -10 20 0 15 -40 9 -53 -9 -6
-7 -7 -6 -4 4 2 8 13 16 25 18 12 2 22 11 22 19 0 21 5 15 18 -25z m199 6 c-3
-7 -5 -2 -5 12 0 14 2 19 5 13 2 -7 2 -19 0 -25z m-107 18 c0 -2 -13 -6 -30
-8 -16 -3 -30 -1 -30 4 0 4 14 8 30 8 17 0 30 -2 30 -4z m1933 -3 c-7 -2 -21
-2 -30 0 -10 3 -4 5 12 5 17 0 24 -2 18 -5z m66 -9 c17 -4 31 -10 31 -15 0
-10 -61 0 -74 12 -12 11 -1 11 43 3z m-2234 -24 c3 -6 -1 -7 -9 -4 -18 7 -21
14 -7 14 6 0 13 -4 16 -10z m-78 -6 c-3 -3 -12 -4 -19 -1 -8 3 -5 6 6 6 11 1
17 -2 13 -5z m2528 -64 c-11 -5 -27 -9 -35 -9 -9 0 -8 4 5 9 11 5 27 9 35 9 9
0 8 -4 -5 -9z m-3371 -15 c-10 -8 -23 -14 -29 -14 -5 0 -1 6 9 14 11 8 24 15
30 15 5 0 1 -7 -10 -15z m3153 9 c-3 -3 -12 -4 -19 -1 -8 3 -5 6 6 6 11 1 17
-2 13 -5z m136 -11 c-7 -2 -21 -2 -30 0 -10 3 -4 5 12 5 17 0 24 -2 18 -5z
m-2933 -13 c0 -5 -4 -10 -10 -10 -5 0 -10 5 -10 10 0 6 5 10 10 10 6 0 10 -4
10 -10z m10 -35 c0 -2 -7 -5 -15 -9 -9 -3 -15 0 -15 9 0 9 6 12 15 9 8 -4 15
-7 15 -9z m-110 -71 c0 -2 -9 0 -20 6 -11 6 -20 13 -20 16 0 2 9 0 20 -6 11
-6 20 -13 20 -16z m55 -32 c-3 -3 -11 0 -18 7 -9 10 -8 11 6 5 10 -3 15 -9 12
-12z"/>
<path d="M1345 1570 c-3 -5 -1 -10 4 -10 6 0 11 5 11 10 0 6 -2 10 -4 10 -3 0
-8 -4 -11 -10z"/>
<path d="M928 1013 c7 -3 16 -2 19 1 4 3 -2 6 -13 5 -11 0 -14 -3 -6 -6z"/>
<path d="M950 981 c-7 -18 -9 -38 -4 -48 5 -13 9 -6 14 27 9 55 7 60 -10 21z"/>
<path d="M985 970 c-8 -26 -9 -89 -2 -97 14 -13 27 12 27 50 0 53 -15 80 -25
47z"/>
<path d="M1292 939 c-21 -34 -32 -69 -22 -69 5 0 13 12 16 28 4 15 11 33 17
40 5 7 8 14 6 17 -3 2 -10 -5 -17 -16z"/>
<path d="M1336 923 c-8 -8 -8 -56 0 -77 12 -32 25 -15 23 30 -3 44 -10 60 -23
47z"/>
<path d="M1210 905 c0 -8 5 -15 10 -15 6 0 10 7 10 15 0 8 -4 15 -10 15 -5 0
-10 -7 -10 -15z"/>
<path d="M1201 794 c0 -11 3 -14 6 -6 3 7 2 16 -1 19 -3 4 -6 -2 -5 -13z"/>
<path d="M3323 773 c9 -2 23 -2 30 0 6 3 -1 5 -18 5 -16 0 -22 -2 -12 -5z"/>
<path d="M3420 756 c0 -2 9 -6 20 -9 11 -3 20 -1 20 4 0 5 -9 9 -20 9 -11 0
-20 -2 -20 -4z"/>
<path d="M3328 743 c12 -2 30 -2 40 0 9 3 -1 5 -23 4 -22 0 -30 -2 -17 -4z"/>
<path d="M3425 725 c50 -18 57 -18 25 0 -14 8 -34 14 -45 14 -11 0 -2 -6 20
-14z"/>
<path d="M3272 724 c3 -3 26 -7 49 -10 24 -2 60 -6 79 -9 l35 -4 -40 14 c-39
13 -134 21 -123 9z"/>
<path d="M3318 433 c6 -2 18 -2 25 0 6 3 1 5 -13 5 -14 0 -19 -2 -12 -5z"/>
<path d="M2800 4149 c0 -33 60 -51 180 -55 58 -1 131 -5 163 -8 69 -7 77 10
10 19 -27 4 -68 14 -93 22 -25 8 -75 18 -113 21 -37 2 -70 9 -73 13 -3 5 -21
9 -40 9 -28 0 -34 -4 -34 -21z"/>
<path d="M3225 4090 c-3 -5 1 -10 9 -10 9 0 16 5 16 10 0 6 -4 10 -9 10 -6 0
-13 -4 -16 -10z"/>
<path d="M3340 4081 c0 -5 7 -11 14 -14 10 -4 13 -1 9 9 -6 15 -23 19 -23 5z"/>
<path d="M870 4014 c0 -82 30 -147 70 -152 31 -5 100 16 100 29 0 6 9 8 20 4
11 -3 20 -3 20 2 0 8 -36 34 -46 32 -6 0 -45 39 -85 87 -14 17 -37 39 -52 49
l-27 17 0 -68z"/>
<path d="M3465 4050 c3 -5 12 -7 20 -3 21 7 19 13 -6 13 -11 0 -18 -4 -14 -10z"/>
<path d="M2830 3883 c0 -11 81 -43 107 -43 11 0 23 -6 26 -13 3 -8 27 -22 54
-32 104 -39 220 -93 240 -113 10 -10 10 -17 0 -32 -6 -11 -17 -20 -24 -20 -7
0 -23 -5 -37 -12 -24 -10 -24 -12 -8 -24 9 -7 27 -14 40 -14 13 0 89 -16 168
-35 79 -19 175 -39 212 -45 37 -5 126 -21 197 -36 72 -14 155 -31 185 -36 168
-30 160 -28 160 -54 0 -16 -6 -24 -17 -25 -10 -1 0 -7 22 -14 55 -18 99 -9
173 38 57 36 67 47 97 111 19 39 37 90 41 112 l6 42 -73 11 c-41 6 -110 17
-154 26 -44 8 -104 17 -133 21 -57 7 -70 17 -52 39 24 29 -5 64 -45 55 -5 -1
-42 -1 -82 -1 -55 1 -75 -3 -89 -16 -16 -16 -15 -18 15 -25 38 -10 42 -22 4
-14 -16 4 -46 8 -68 10 -22 2 -89 14 -148 25 -59 12 -121 21 -137 21 -16 0
-32 5 -35 10 -3 6 -43 10 -88 10 -45 0 -100 5 -122 10 -22 5 -80 12 -130 15
-49 4 -103 10 -120 15 -42 13 -162 40 -175 40 -5 0 -10 -3 -10 -7z m803 -326
c24 15 66 11 130 -11 36 -13 64 -25 61 -28 -8 -9 -78 2 -85 14 -4 6 -11 8 -16
5 -16 -10 -106 7 -109 21 -1 7 0 8 3 2 2 -5 10 -7 16 -3z"/>
<path d="M1152 3839 c2 -7 10 -15 17 -17 8 -3 12 1 9 9 -2 7 -10 15 -17 17 -8
3 -12 -1 -9 -9z"/>
<path d="M2590 3830 c-13 -8 -12 -10 3 -10 9 0 17 5 17 10 0 12 -1 12 -20 0z"/>
<path d="M4202 3803 c-1 -7 -8 -13 -15 -13 -20 0 -37 -43 -25 -63 11 -21 28
-22 28 -3 0 8 5 16 11 18 6 2 9 19 6 38 -2 19 -5 29 -5 23z"/>
<path d="M4918 3536 c-25 -13 -71 -44 -104 -68 -89 -66 -139 -98 -153 -98 -7
0 -28 -12 -47 -26 -41 -32 -46 -64 -10 -64 30 0 45 -19 24 -31 -8 -4 -25 -17
-38 -27 -23 -18 -23 -23 -22 -178 0 -146 -14 -280 -43 -397 -7 -25 -5 -27 22
-27 16 0 90 11 164 24 74 13 169 27 212 31 l77 7 0 439 c0 497 7 462 -82 415z
m-214 -418 c28 -43 48 -149 42 -213 -8 -69 -24 -125 -36 -125 -34 0 -55 79
-66 241 -5 88 -4 98 12 108 27 15 32 14 48 -11z"/>
<path d="M3812 3337 c-11 -13 -53 -106 -49 -108 1 0 21 -2 45 -4 23 -2 54 -11
69 -22 67 -48 77 -52 90 -42 14 12 63 112 63 129 0 5 16 18 36 28 l37 17 -29
6 c-57 13 -251 10 -262 -4z"/>
<path d="M3721 3118 c-6 -24 -17 -63 -25 -88 -8 -24 -13 -46 -11 -48 2 -2 24
24 49 58 44 61 45 64 30 91 -20 40 -31 36 -43 -13z"/>
<path d="M4172 3136 c-29 -17 -38 -26 -25 -26 6 0 21 9 34 20 27 22 24 24 -9
6z"/>
<path d="M3903 3052 c-5 -4 -19 -25 -30 -47 -11 -22 -68 -127 -127 -234 -58
-107 -106 -199 -106 -204 0 -19 174 26 201 52 11 12 19 50 27 136 6 67 18 153
28 192 15 65 19 72 46 77 17 3 27 10 23 16 -4 6 -11 8 -16 4 -5 -3 -15 -1 -22
5 -7 5 -18 7 -24 3z"/>
<path d="M3985 3050 c-3 -6 1 -7 9 -4 18 7 21 14 7 14 -6 0 -13 -4 -16 -10z"/>
<path d="M4073 2915 c-10 -10 -8 -15 5 -20 15 -7 15 -8 -2 -14 -17 -7 -17 -8
-3 -14 25 -9 42 18 25 41 -11 16 -15 17 -25 7z"/>
<path d="M4130 2760 l-25 -6 23 -13 c19 -10 23 -9 28 4 8 21 4 23 -26 15z"/>
<path d="M4093 2680 l-23 -9 30 -32 c16 -18 27 -36 24 -41 -3 -5 -27 -18 -52
-30 -127 -57 -150 -66 -187 -78 -22 -7 -51 -19 -65 -26 -55 -30 -162 -74 -203
-85 -46 -11 -107 -52 -95 -64 4 -4 29 0 57 10 52 17 71 14 71 -10 0 -25 35
-34 156 -39 125 -5 244 -14 281 -22 27 -5 97 52 86 70 -16 24 -10 36 15 37 15
0 21 3 15 6 -7 2 -13 10 -13 16 0 6 -10 21 -22 34 -12 13 -16 23 -10 23 8 0 9
7 1 27 -7 19 -6 28 2 33 8 6 7 9 -2 13 -11 4 -11 6 -1 6 7 1 23 10 35 21 12
12 45 32 74 46 64 32 77 47 69 79 -8 31 -19 32 -39 1 -23 -34 -50 -37 -99 -11
-58 30 -79 35 -105 25z m-23 -290 c0 -5 -4 -10 -10 -10 -5 0 -10 5 -10 10 0 6
5 10 10 10 6 0 10 -4 10 -10z m83 0 c21 0 21 -1 -3 -13 -36 -19 -76 -6 -53 17
4 3 13 4 21 1 7 -3 23 -5 35 -5z m-13 -44 c0 -3 -4 -8 -10 -11 -5 -3 -10 -1
-10 4 0 6 5 11 10 11 6 0 10 -2 10 -4z"/>
<path d="M4939 2663 c-16 -4 -24 -73 -8 -73 5 0 9 -5 9 -12 0 -9 -3 -9 -12 0
-10 10 -17 7 -35 -14 -21 -25 -27 -26 -180 -34 -87 -5 -170 -9 -184 -10 -19 0
-36 -15 -74 -67 -27 -38 -73 -97 -102 -132 -78 -96 -81 -93 96 -112 128 -14
131 -13 151 61 16 58 76 115 141 134 71 21 115 9 103 -27 -3 -12 -16 -35 -26
-50 -26 -36 -17 -44 27 -23 19 9 51 23 71 32 27 13 40 14 60 6 l24 -12 0 164
c0 162 0 164 -22 168 -13 2 -30 2 -39 1z"/>
<path d="M3626 2525 c-3 -8 -1 -17 3 -20 5 -3 11 2 15 10 3 8 1 17 -3 20 -5 3
-11 -2 -15 -10z"/>
<path d="M2910 2486 c0 -9 5 -16 10 -16 6 0 10 4 10 9 0 6 -4 13 -10 16 -5 3
-10 -1 -10 -9z"/>
<path d="M3589 2463 c-7 -16 -15 -31 -17 -35 -2 -5 4 -8 13 -8 9 0 13 4 10 10
-3 5 -1 19 5 31 7 11 10 23 7 25 -2 2 -10 -8 -18 -23z"/>
<path d="M4278 2483 c-9 -2 -15 -10 -12 -17 4 -11 10 -11 29 -2 13 6 21 14 19
18 -5 8 -8 8 -36 1z"/>
<path d="M4224 2453 c0 -13 9 -26 19 -29 9 -3 17 -10 17 -16 0 -15 13 -1 16
16 1 8 -7 17 -18 20 -12 3 -18 10 -15 19 3 7 -1 14 -8 14 -7 0 -12 -11 -11
-24z"/>
<path d="M3410 2450 c0 -5 4 -10 9 -10 6 0 13 5 16 10 3 6 -1 10 -9 10 -9 0
-16 -4 -16 -10z"/>
<path d="M4885 2240 c-19 -21 -13 -42 7 -22 7 7 20 12 31 12 16 0 17 2 3 15
-19 19 -19 19 -41 -5z"/>
<path d="M4711 2131 c-19 -12 -2 -43 20 -36 11 4 19 2 19 -5 0 -6 5 -8 10 -5
7 4 7 12 0 24 -12 23 -33 32 -49 22z"/>
<path d="M4904 2095 c-24 -18 -7 -19 26 0 16 9 19 14 9 15 -8 0 -24 -7 -35
-15z"/>
<path d="M4799 2057 c26 -28 31 -32 31 -19 0 4 -13 16 -28 26 l-27 19 24 -26z"/>
<path d="M4580 2026 c0 -2 8 -10 18 -17 15 -13 16 -12 3 4 -13 16 -21 21 -21
13z"/>
<path d="M4697 2016 c-4 -10 -5 -21 -2 -24 9 -9 17 6 13 25 -3 17 -4 17 -11
-1z"/>
<path d="M4654 1979 c-16 -17 -16 -22 -4 -29 24 -16 30 -12 30 20 0 36 -1 36
-26 9z"/>
<path d="M4607 1966 c-4 -10 -1 -13 9 -9 15 6 19 23 5 23 -5 0 -11 -7 -14 -14z"/>
<path d="M4824 1946 c-10 -25 0 -50 24 -62 27 -13 72 -54 72 -65 0 -4 10 -24
21 -44 18 -30 24 -34 37 -23 13 11 15 10 9 -5 -4 -11 -3 -16 3 -12 6 3 10 33
10 66 0 61 -2 63 -47 62 -7 -1 -10 3 -7 8 3 5 -1 9 -9 9 -8 0 -33 18 -56 40
-46 45 -49 46 -57 26z"/>
<path d="M4840 1762 c0 -9 10 -22 23 -27 12 -6 23 -20 25 -31 4 -26 27 -48 76
-73 l36 -19 0 33 c0 36 -32 65 -77 70 -23 2 -57 25 -38 25 4 0 0 9 -10 20 -22
25 -35 26 -35 2z"/>
<path d="M4859 1647 c-10 -8 -16 -30 -17 -69 -1 -61 12 -78 23 -30 6 31 45 43
45 15 0 -18 67 -103 81 -103 5 0 9 29 9 65 0 42 -4 65 -11 65 -7 0 -34 16 -60
35 -56 40 -49 38 -70 22z"/>
<path d="M61 1194 c0 -11 3 -14 6 -6 3 7 2 16 -1 19 -3 4 -6 -2 -5 -13z"/>
<path d="M61 1144 c0 -11 3 -14 6 -6 3 7 2 16 -1 19 -3 4 -6 -2 -5 -13z"/>
</g>
</svg>
